<svg width="84" height="83" viewBox="0 0 84 83" fill="none" xmlns="http://www.w3.org/2000/svg">
    <g clip-path="url(#clip0_19_115)">
        <path
            d="M71.0539 34.9532C70.523 34.4262 69.7884 34.1254 69.019 34.152C66.3245 34.2399 64.2012 36.4891 64.2816 39.1668L64.4291 43.6386L63.6676 46.6943C62.7453 46.689 61.8231 47.0324 61.1207 47.7297L56.1125 52.7073L54.3778 53.0054C53.2572 53.1944 52.1955 53.7374 51.3911 54.5386L47.9407 57.9642C46.9245 58.9731 46.3454 60.3119 46.3132 61.736L46.1846 67.4136C44.5759 67.9433 43.4016 69.4392 43.3829 71.2119L43.3024 78.6461C43.2917 79.7241 43.7046 80.7436 44.4687 81.5209C45.2328 82.2954 46.2516 82.7293 47.3374 82.74L59.7617 82.8704H59.8073C60.877 82.8704 61.8877 82.4605 62.6572 81.7126C63.4374 80.9539 63.8744 79.9425 63.8852 78.8645L63.9656 71.433C63.9763 70.355 63.5634 69.3328 62.7994 68.5582C62.3677 68.119 61.8529 67.7969 61.2926 67.5893L61.3167 67.4163C61.5071 66.1519 62.0862 65.0101 62.9951 64.1077L68.8237 58.321C70.3117 56.8437 71.2527 54.8899 71.4699 52.8244L72.0892 47.0004C72.1321 46.7901 72.1562 46.5692 72.1589 46.343L72.1616 46.327V46.3004C72.1616 46.2631 72.167 46.2258 72.167 46.1886L71.864 36.798C71.8372 36.1007 71.5499 35.4456 71.0539 34.9532ZM61.9062 71.4089L61.8258 78.8404C61.8204 79.3728 61.6033 79.8731 61.2172 80.2485C60.8285 80.6264 60.3057 80.8048 59.7829 80.8261L47.3613 80.6957C46.8251 80.6903 46.3211 80.4747 45.9431 80.0914C45.565 79.7081 45.3586 79.2024 45.364 78.6701L45.4444 71.2358C45.4551 70.1365 46.3613 69.2528 47.4632 69.2528H47.4847L59.9062 69.3859C60.4424 69.3912 60.9464 69.6068 61.3245 69.9901C61.7052 70.3707 61.9116 70.8766 61.9062 71.4089ZM67.3648 56.8784L61.5362 62.6651C60.3137 63.8789 59.5335 65.4174 59.2788 67.121L59.2466 67.3312L48.2492 67.2141L48.3726 61.7814C48.394 60.8871 48.7586 60.0433 49.3967 59.4071L52.8472 55.9814C53.3512 55.481 54.0188 55.1376 54.7266 55.0178L56.7857 54.6638C56.8581 54.6505 56.9278 54.6319 56.9948 54.6053C57.0002 54.6026 57.0028 54.5999 57.0082 54.5973C57.1315 54.5467 57.2415 54.4722 57.3353 54.3817C57.338 54.379 57.338 54.379 57.3407 54.379L62.5794 49.1726C63.1692 48.587 64.1291 48.587 64.7162 49.1726C65.3061 49.7582 65.3061 50.7111 64.7162 51.2967L58.6973 57.2723C58.2951 57.6716 58.2951 58.3185 58.6973 58.7177C58.8984 58.9227 59.1611 59.0211 59.4239 59.0211C59.6866 59.0211 59.952 58.9227 60.1531 58.723L66.172 52.7474C67.5635 51.3659 67.5635 49.1167 66.172 47.7326C66.0058 47.5675 65.8262 47.4264 65.6385 47.3013L66.4616 43.9954C66.4643 43.9848 66.4643 43.9741 66.4669 43.9608C66.475 43.9262 66.4777 43.8916 66.483 43.857C66.4857 43.8224 66.4911 43.7878 66.4911 43.7505C66.4911 43.7399 66.4938 43.7292 66.4938 43.7159L66.3436 39.1031C66.2954 37.5513 67.5287 36.247 69.0783 36.1938C69.2874 36.1938 69.4644 36.263 69.6011 36.3987C69.6896 36.4866 69.7995 36.641 69.8076 36.8645L70.1078 46.1808L70.0381 46.8356C70.0354 46.8596 70.0301 46.8836 70.0301 46.9075L69.4242 52.609C69.2526 54.2141 68.5204 55.7285 67.3648 56.8784Z"
            fill="#1173F1" />
        <path
            d="M59.0191 73.5538C59.0191 75.618 55.9004 75.618 55.9004 73.5538C55.9004 71.4896 59.0191 71.4896 59.0191 73.5538Z"
            fill="#1173F1" />
        <path
            d="M12.47 36.8009L12.167 46.1997C12.167 46.2396 12.1724 46.2795 12.1724 46.3194V46.3301V46.3381C12.175 46.567 12.1992 46.7906 12.2447 47.0062L12.8641 52.8275C13.0812 54.8957 14.0223 56.8468 15.5103 58.3241L21.3389 64.1108C22.2451 65.0131 22.8269 66.155 23.0145 67.4167L23.0414 67.5924C22.481 67.7973 21.9663 68.1221 21.5346 68.5613C20.7705 69.3359 20.3577 70.358 20.3684 71.436L20.4488 78.8675C20.4595 79.9455 20.8965 80.957 21.6768 81.7157C22.4462 82.4636 23.457 82.8735 24.5267 82.8735H24.5723L36.9938 82.7431C38.0796 82.7324 39.0984 82.2986 39.8625 81.524C40.6266 80.7494 41.0422 79.7273 41.0288 78.6492L40.9483 71.215C40.9296 69.4396 39.7553 67.9437 38.1467 67.4166L38.018 61.7391C37.9858 60.3151 37.4067 58.9762 36.3906 57.9673L32.9401 54.5417C32.1358 53.7431 31.074 53.1974 29.9561 53.0111L28.2188 52.713L23.2079 47.7355C22.5055 47.0408 21.5831 46.6974 20.6609 46.7001L19.8995 43.6417L20.0469 39.1673C20.1274 36.4922 18.0039 34.2429 15.2988 34.1525C14.548 34.1285 13.8054 34.4293 13.2746 34.9537C12.7813 35.4461 12.4941 36.1009 12.47 36.8009ZM38.8861 71.2335L38.9666 78.6677C38.9719 79.2 38.7682 79.7058 38.3875 80.089C38.0094 80.4723 37.5054 80.6879 36.9692 80.6933L24.5477 80.8264C24.0115 80.8051 23.5021 80.6267 23.116 80.2514C22.7299 79.8761 22.5128 79.3757 22.5074 78.8433L22.4243 71.4091C22.4189 70.8768 22.6227 70.371 23.0034 69.9877C23.3814 69.6045 23.8855 69.3888 24.4217 69.3835L36.8432 69.2504H36.8647C37.972 69.2504 38.8754 70.1368 38.8861 71.2335ZM14.7328 36.3989C14.8696 36.2631 15.0438 36.2019 15.2422 36.1939C16.8026 36.2445 18.0359 37.5488 17.9876 39.1006L17.8375 43.7134C17.8375 43.724 17.8402 43.7347 17.8402 43.748C17.8402 43.7826 17.8429 43.8172 17.8482 43.8545C17.8509 43.8891 17.8563 43.9263 17.8643 43.9583C17.867 43.9689 17.867 43.9796 17.8697 43.9929L18.6927 47.2988C18.5051 47.4239 18.3254 47.5677 18.1592 47.7327C16.7678 49.1141 16.7678 51.3633 18.1592 52.7475L24.1782 58.7232C24.3792 58.9228 24.6447 59.0213 24.9074 59.0213C25.1701 59.0213 25.4356 58.9228 25.6366 58.7232C26.0388 58.3239 26.0388 57.6771 25.6366 57.2778L19.6177 51.3022C19.0279 50.7166 19.0279 49.7637 19.6177 49.178C20.2075 48.5925 21.1673 48.5925 21.7545 49.178L26.996 54.3845C26.9986 54.3871 26.9986 54.3871 27.0013 54.3871C27.0925 54.4776 27.2051 54.5522 27.3284 54.6027C27.3338 54.6054 27.3365 54.6081 27.3418 54.6107C27.4088 54.6373 27.4759 54.656 27.5509 54.6693L29.6127 55.0233C30.3177 55.1431 30.9827 55.4838 31.4894 55.9842L34.9399 59.4099C35.5807 60.0461 35.9453 60.8872 35.9641 61.7816L36.0874 67.2143L25.09 67.3314L25.0579 67.1158C24.8032 65.4149 24.0203 63.8764 22.8004 62.6626L16.9718 56.8759C15.8162 55.7287 15.087 54.2142 14.9181 52.6091L14.3122 46.9075C14.3122 46.8836 14.3068 46.8596 14.3041 46.8357L14.2344 46.1809L14.5293 36.8673C14.5374 36.6411 14.6444 36.4894 14.7328 36.3989Z"
            fill="#1173F1" />
        <path
            d="M28.4307 73.5538C28.4307 75.618 25.312 75.618 25.312 73.5538C25.312 71.4896 28.4307 71.4896 28.4307 73.5538Z"
            fill="#1173F1" />
        <path
            d="M33.4227 9.45795C33.4227 9.85138 33.1501 10.2074 32.7491 10.296C32.283 10.4002 31.8208 10.1091 31.7161 9.6468L31.1868 7.3177C31.0821 6.85542 31.3744 6.39316 31.8386 6.28887C32.3047 6.18461 32.7669 6.47574 32.8716 6.93804L33.401 9.26714C33.4148 9.33009 33.4227 9.395 33.4227 9.45795Z"
            fill="#2BBF5E" />
        <path
            d="M35.3382 18.2132C35.3382 18.6126 35.0578 18.9706 34.6489 19.0552C34.1808 19.1516 33.7246 18.8526 33.6278 18.3864L32.3795 12.3866C32.2827 11.9204 32.5829 11.466 33.051 11.3696C33.5191 11.2732 33.9754 11.5722 34.0721 12.0384L35.3204 18.0382C35.3323 18.0972 35.3382 18.1562 35.3382 18.2132Z"
            fill="#2BBF5E" />
        <path
            d="M39.7587 37.3889C39.7587 37.7823 39.4861 38.1384 39.0852 38.2269C38.619 38.3311 38.1569 38.04 38.0521 37.5777L36.3298 29.9826C36.2252 29.5183 36.5175 29.058 36.9817 28.9537C37.4478 28.8495 37.91 29.1406 38.0147 29.6029L39.737 37.1981C39.7508 37.261 39.7587 37.3259 39.7587 37.3889Z"
            fill="#2BBF5E" />
        <path
            d="M40.8113 42.0275C40.8113 42.421 40.5388 42.777 40.1378 42.8656C39.6717 42.9698 39.2095 42.6787 39.1048 42.2164L38.7493 40.6505C38.6446 40.1863 38.9369 39.726 39.4011 39.6217C39.8672 39.5174 40.3294 39.8086 40.4341 40.2709L40.7896 41.8367C40.8035 41.8997 40.8113 41.9646 40.8113 42.0275Z"
            fill="#2BBF5E" />
        <path
            d="M41.9335 14.5682C41.9335 15.0265 41.5721 15.4062 41.1079 15.4278C40.6319 15.4494 40.227 15.0816 40.2052 14.6055L39.747 4.3842C39.7253 3.90815 40.0946 3.50684 40.5726 3.48519C41.0486 3.46355 41.4535 3.83141 41.4753 4.30745L41.9335 14.5288L41.9335 14.5682Z"
            fill="#2BBF5E" />
        <path
            d="M43.3632 46.5305C43.3632 46.9849 43.0077 47.3645 42.5475 47.3901C42.0715 47.4157 41.6626 47.0537 41.6369 46.5776L40.596 27.8467C40.5703 27.3726 40.9338 26.9654 41.4117 26.9398C41.8878 26.9142 42.2966 27.2762 42.3223 27.7522L43.3612 46.4812C43.3632 46.4989 43.3632 46.5147 43.3632 46.5305Z"
            fill="#2BBF5E" />
        <path
            d="M50.4524 1.42965C50.4524 1.46112 50.4504 1.4926 50.4465 1.52407L49.3582 11.5269C49.3069 11.999 48.8802 12.3413 48.4062 12.2901C47.9322 12.2389 47.5885 11.8121 47.6399 11.3419L48.7301 1.34117C48.7815 0.869057 49.2081 0.526766 49.6821 0.577931C50.1245 0.623175 50.4524 0.996881 50.4524 1.42965Z"
            fill="#2BBF5E" />
        <path
            d="M49.0693 14.1216C49.0693 14.153 49.0673 14.1845 49.0633 14.216L48.5774 18.6795C48.5261 19.1516 48.0995 19.4939 47.6254 19.4427C47.1514 19.3915 46.8077 18.9647 46.8591 18.4945L47.345 14.0311C47.3963 13.559 47.823 13.2167 48.297 13.2678C48.7394 13.315 49.0693 13.6888 49.0693 14.1216Z"
            fill="#2BBF5E" />
        <path
            d="M47.2463 27.7975C47.2463 27.829 47.2443 27.8605 47.2404 27.892L46.6419 33.3821C46.5905 33.8542 46.1639 34.1965 45.6899 34.1453C45.2159 34.0942 44.8722 33.6693 44.9235 33.1972L45.522 27.707C45.5734 27.2349 46 26.8926 46.474 26.9438C46.9184 26.991 47.2463 27.3628 47.2463 27.7975Z"
            fill="#2BBF5E" />
        <path
            d="M46.2685 36.7735C46.2685 36.805 46.2665 36.8365 46.2625 36.8679L45.6898 42.1204C45.6384 42.5925 45.2118 42.9348 44.7377 42.8836C44.2637 42.8324 43.92 42.4076 43.9714 41.9354L44.5442 36.683C44.5955 36.2109 45.0222 35.8686 45.4962 35.9198C45.9406 35.965 46.2685 36.3388 46.2685 36.7735Z"
            fill="#2BBF5E" />
        <path
            d="M53.3123 11.7614C53.3123 11.8165 53.3064 11.8735 53.2965 11.9305L51.746 19.7105C51.6532 20.1767 51.1989 20.4796 50.7308 20.3872C50.2627 20.2948 49.9585 19.8423 50.0513 19.3761L51.6018 11.5962C51.6946 11.13 52.1489 10.827 52.617 10.9194C53.0259 11.0001 53.3123 11.3581 53.3123 11.7614Z"
            fill="#2BBF5E" />
        <path
            d="M49.575 30.9862C49.575 31.0295 49.5711 31.0728 49.5652 31.1161L48.7139 36.7266C48.6428 37.1967 48.2023 37.5193 47.7303 37.4485C47.2582 37.3777 46.9343 36.939 47.0054 36.4689L47.8547 30.8584C47.9258 30.3882 48.3663 30.0656 48.8383 30.1364C49.2669 30.1994 49.575 30.5672 49.575 30.9862Z"
            fill="#2BBF5E" />
        <path
            d="M36.7071 34.0727C36.7071 34.5488 36.32 34.9343 35.842 34.9343C30.9437 34.9343 26.958 30.9646 26.958 26.0863C26.958 21.7645 30.057 18.0978 34.3272 17.3661C34.7972 17.2855 35.2456 17.6002 35.3246 18.0684C35.4056 18.5366 35.0896 18.9831 34.6195 19.0618C31.1808 19.65 28.6864 22.6047 28.6864 26.0844C28.6864 30.0147 31.896 33.2111 35.8421 33.2111C36.3201 33.2131 36.7071 33.5987 36.7071 34.0727Z"
            fill="#2BBF5E" />
        <path
            d="M46.2687 19.321C46.2687 19.7971 45.8816 20.1826 45.4036 20.1826C44.9257 20.1826 44.5386 19.7971 44.5386 19.321C44.5386 17.1749 42.7846 15.428 40.6297 15.428C38.4749 15.428 36.7209 17.1749 36.7209 19.321C36.7209 19.7971 36.3338 20.1826 35.8558 20.1826C35.3778 20.1826 34.9907 19.7971 34.9907 19.321C34.9907 16.2248 37.5189 13.707 40.6276 13.707C43.7384 13.709 46.2687 16.2269 46.2687 19.321Z"
            fill="#2BBF5E" />
        <path
            d="M57.3748 24.998C57.3748 29.9099 53.3613 33.907 48.4295 33.907C47.9516 33.907 47.5645 33.5214 47.5645 33.0454C47.5645 32.5693 47.9516 32.1838 48.4295 32.1838C52.4095 32.1838 55.6465 28.9597 55.6465 24.9961C55.6465 21.0325 52.4093 17.8084 48.4295 17.8084C47.9516 17.8084 47.5645 17.4228 47.5645 16.9468C47.5645 16.4707 47.9516 16.0852 48.4295 16.0852C53.3615 16.0891 57.3748 20.0861 57.3748 24.998Z"
            fill="#2BBF5E" />
        <path
            d="M42.8535 25.7968C42.8535 27.8406 41.5598 29.7508 39.5116 30.4432C38.2672 30.8642 36.932 30.7756 35.7529 30.1953C34.5737 29.615 33.6928 28.6138 33.2721 27.3744C33.12 26.9239 33.361 26.4361 33.8133 26.2826C34.2656 26.1292 34.7554 26.3712 34.9095 26.8216C35.1821 27.6262 35.7549 28.2753 36.5193 28.6511C37.2836 29.0268 38.1488 29.0838 38.9566 28.8124C40.6236 28.2498 41.5203 26.442 40.9554 24.7817C40.8013 24.3312 41.0443 23.8434 41.4966 23.6899C41.9489 23.5365 42.4387 23.7784 42.5928 24.2289C42.7686 24.7482 42.8535 25.2774 42.8535 25.7968Z"
            fill="#2BBF5E" />
        <path
            d="M47.6558 24.5061C47.6558 26.3591 46.1428 27.866 44.2842 27.866C42.4236 27.866 40.9126 26.3591 40.9126 24.5061C40.9126 24.03 41.2997 23.6445 41.7777 23.6445C42.2557 23.6445 42.6428 24.03 42.6428 24.5061C42.6428 25.409 43.3795 26.1427 44.2861 26.1427C45.1927 26.1427 45.9294 25.409 45.9294 24.5061C45.9294 24.03 46.3165 23.6445 46.7945 23.6445C47.2685 23.6445 47.6558 24.03 47.6558 24.5061Z"
            fill="#2BBF5E" />
        <path
            d="M51.1315 26.2611C51.1315 27.8761 49.8121 29.1902 48.1905 29.1902C46.5689 29.1902 45.2495 27.8761 45.2495 26.2611C45.2495 25.7851 45.6366 25.3995 46.1146 25.3995C46.5926 25.3995 46.9797 25.7851 46.9797 26.2611C46.9797 26.926 47.5229 27.467 48.1904 27.467C48.858 27.467 49.4012 26.926 49.4012 26.2611C49.4012 25.7851 49.7883 25.3995 50.2663 25.3995C50.7443 25.4015 51.1315 25.7851 51.1315 26.2611Z"
            fill="#2BBF5E" />
    </g>
    <defs>
        <clipPath id="clip0_19_115">
            <rect width="83" height="82" fill="white" transform="translate(0.666504 0.67041)" />
        </clipPath>
    </defs>
</svg>