<svg width="60" height="58" viewBox="0 0 60 58" fill="none" xmlns="http://www.w3.org/2000/svg">
    <g clip-path="url(#clip0_19_102)">
        <path
            d="M59.7573 43.5486C59.6358 43.3641 56.9502 39.318 49.9966 40.911C45.7883 41.8932 42.4924 42.9353 40.7245 43.6084C40.541 41.9531 39.1374 40.6642 37.4908 40.5421L12.0524 35.5737V34.1028C12.0524 33.5518 11.6259 33.1206 11.0754 33.1206H0.70459C0.1565 33.1206 -0.272461 33.5494 -0.272461 34.1028V54.0965C-0.272461 54.6474 0.154096 55.0787 0.70459 55.0787H11.0754C11.6235 55.0787 12.0524 54.6499 12.0524 54.0965V52.0123C15.9558 53.5455 26.9986 57.776 32.794 57.776C39.8096 57.776 58.721 45.4482 59.5147 44.96C59.9412 44.5911 60.0628 43.9778 59.7577 43.549L59.7573 43.5486ZM1.68152 53.0541V35.0849H10.0385V53.0541H1.68152ZM32.7939 55.7515C27.0604 55.7515 14.9189 50.9676 12.0523 49.8034V37.5982L37.307 42.5043C38.1601 42.5043 38.8321 43.1799 38.8321 44.0374C38.8321 44.895 38.1601 45.5706 37.307 45.5706H23.0923C22.5442 45.5706 22.1153 45.9994 22.1153 46.5528C22.1153 47.1038 22.5418 47.535 23.0923 47.535H37.2448C38.4649 47.535 39.5635 46.8594 40.1735 45.8797C41.2721 45.4509 45.1754 43.9776 50.4229 42.8134C54.2047 41.9558 56.3399 43.0577 57.3762 43.8554C53.3513 46.4307 38.3434 55.7515 32.7932 55.7515H32.7939Z"
            fill="#1173F1" />
        <path d="M34.6426 26.5852L21.6107 24.3009" stroke="#2BBF5E" stroke-width="3.17333"
            stroke-linecap="round" stroke-linejoin="round" />
        <path d="M34.6426 14.0484L21.6107 16.3259" stroke="#2BBF5E" stroke-width="3.17333"
            stroke-linecap="round" stroke-linejoin="round" />
        <path d="M21.0488 20.3098L38.0415 18.0346" stroke="#2BBF5E" stroke-width="3.17333"
            stroke-linecap="round" stroke-linejoin="round" />
        <path
            d="M49.2998 27.7769C48.8607 30.4526 47.2946 32.8075 45.0041 34.2364C42.7114 35.6675 39.9185 36.0338 37.3386 35.2421C34.7584 34.4526 32.6445 32.5801 31.5353 30.1069"
            stroke="#2BBF5E" stroke-width="3.17333" stroke-linecap="round" stroke-linejoin="round" />
        <path
            d="M40.783 13.7117C42.5959 11.7482 45.2191 10.7539 47.8691 11.0224C50.5217 11.2909 52.8936 12.7948 54.2785 15.0814C55.6659 17.368 55.9058 20.1779 54.928 22.6691C53.9503 25.1603 51.8658 27.0466 49.2993 27.7656"
            stroke="#2BBF5E" stroke-width="3.17333" stroke-linecap="round" stroke-linejoin="round" />
        <path
            d="M32.5553 9.63459C33.0329 6.74508 34.9476 4.30149 37.6296 3.15941C40.3138 2.01726 43.3919 2.33575 45.7887 4.0035C48.1833 5.67125 49.5639 8.4561 49.444 11.3821"
            stroke="#2BBF5E" stroke-width="3.17333" stroke-linecap="round" stroke-linejoin="round" />
    </g>
    <defs>
        <clipPath id="clip0_19_102">
            <rect width="60" height="57" fill="white" transform="translate(0 0.811035)" />
        </clipPath>
    </defs>
</svg>