<svg width="72" height="46" viewBox="0 0 72 46" fill="none" xmlns="http://www.w3.org/2000/svg">
    <path
        d="M62.809 36.8589C62.3118 36.8589 61.9102 37.2606 61.9102 37.7577V40.3391C61.9102 40.8362 62.3118 41.2379 62.809 41.2379C63.3062 41.2379 63.7078 40.8362 63.7078 40.3391V37.7577C63.7078 37.2634 63.3034 36.8589 62.809 36.8589Z"
        fill="#1173F1" />
    <path
        d="M62.809 26.5281C62.3118 26.5281 61.9102 26.9297 61.9102 27.4269V30.0082C61.9102 30.5054 62.3118 30.9071 62.809 30.9071C63.3062 30.9071 63.7078 30.5054 63.7078 30.0082V27.4269C63.7078 26.9297 63.3034 26.5281 62.809 26.5281Z"
        fill="#1173F1" />
    <path
        d="M62.809 21.3564C62.3118 21.3564 61.9102 21.7581 61.9102 22.2553V24.8366C61.9102 25.3338 62.3118 25.7355 62.809 25.7355C63.3062 25.7355 63.7078 25.3338 63.7078 24.8366V22.2553C63.7078 21.7581 63.3034 21.3564 62.809 21.3564Z"
        fill="#1173F1" />
    <path
        d="M62.809 31.6909C62.3118 31.6909 61.9102 32.0926 61.9102 32.5898V35.1711C61.9102 35.6683 62.3118 36.0699 62.809 36.0699C63.3062 36.0699 63.7078 35.6683 63.7078 35.1711V32.5898C63.7078 32.0926 63.3034 31.6909 62.809 31.6909Z"
        fill="#1173F1" />
    <path
        d="M62.809 16.1855C62.3118 16.1855 61.9102 16.5872 61.9102 17.0844V19.6657C61.9102 20.1629 62.3118 20.5646 62.809 20.5646C63.3062 20.5646 63.7078 20.1629 63.7078 19.6657V17.0844C63.7078 16.59 63.3034 16.1855 62.809 16.1855Z"
        fill="#1173F1" />
    <path
        d="M71.0273 25.2523H71.0498H71.0722C71.5694 25.2523 71.9711 24.8507 71.9711 24.3535L71.9683 12.9857C71.9683 12.4885 71.5666 12.0868 71.0694 12.0868H38.3235L31.0034 4.49986C29.8966 3.35668 28.349 2.69376 26.762 2.69376L8.76859 2.69657V1.28654C8.76859 0.789363 8.36692 0.387695 7.86975 0.387695H0.959878C0.462703 0.387695 0.0610352 0.789363 0.0610352 1.28654V24.8585C0.0610352 25.3557 0.462703 25.7573 0.959878 25.7573H7.87816C8.37533 25.7573 8.777 25.3557 8.777 24.8585V22.9372H13.2151C15.1138 26.4595 19.0182 27.1 20.8214 27.2011V44.3352C20.8214 44.8324 21.2231 45.234 21.7203 45.234H71.0782C71.5754 45.234 71.977 44.8324 71.977 44.3352V32.423C71.977 31.9258 71.5754 31.5242 71.0782 31.5242H71.0277C69.303 31.5242 67.8929 30.1141 67.8929 28.3894C67.8901 26.6563 69.2942 25.2523 71.0273 25.2523ZM6.97939 23.9602H1.85038V2.17732H6.97659L6.97939 23.9602ZM14.5858 21.6794C14.4425 21.3564 14.1195 21.1485 13.7656 21.1485H8.76859V4.48614H26.7598C27.8665 4.48614 28.9452 4.94679 29.7148 5.74452L35.8353 12.0926H28.7513L25.1699 8.35397C24.8245 7.99443 24.2627 7.986 23.9032 8.32588C23.5436 8.67137 23.5352 9.23313 23.8751 9.59267L34.3103 20.4852C34.5827 20.7661 34.5771 21.2183 34.2962 21.4992C33.5631 22.2323 32.5856 22.62 31.5435 22.5863C30.5015 22.5497 29.5521 22.0975 28.8694 21.3139L26.7403 18.8842C26.4875 18.5977 26.0774 18.5022 25.7263 18.6482C25.5044 18.7353 20.3051 20.7773 17.3922 14.7299C17.176 14.2833 16.645 14.0979 16.1984 14.3142C15.7518 14.5304 15.5664 15.0613 15.7827 15.508C17.1787 18.3983 19.041 19.7859 20.8162 20.3982V25.3952C19.2461 25.2829 15.9228 24.6793 14.5858 21.6794ZM70.1795 33.2437V43.4402H63.7079V42.9289C63.7079 42.4318 63.3062 42.0301 62.809 42.0301C62.3118 42.0301 61.9102 42.4318 61.9102 42.9289V43.4402H22.6113V20.7893C23.9484 20.9185 25.1057 20.6966 25.7826 20.5169L27.5297 22.5083C28.5297 23.6515 29.9734 24.3341 31.4987 24.3847H31.6784C32.8357 24.3847 33.9733 24.0111 34.9058 23.3426C36.8882 21.9216 36.2784 20.0007 35.6137 19.2501C34.9491 18.4996 30.4735 13.8852 30.4735 13.8852H61.9107V14.5031C61.9107 15.0003 62.3124 15.402 62.8095 15.402C63.3067 15.402 63.7084 15.0003 63.7084 14.5031V13.8852H70.1801V23.5366C67.8655 23.9383 66.1015 25.9607 66.1015 28.3903C66.1015 30.82 67.8622 32.8392 70.1795 33.2437Z"
        fill="#1173F1" />
    <g clip-path="url(#clip0_19_140)">
        <path
            d="M53.0318 26.9671C53.0318 26.0897 52.3915 25.3632 51.5517 25.2263C51.5503 25.2242 51.5475 25.2221 51.5454 25.2214L47.8052 24.7181L46.1666 21.3958C45.9115 20.7325 45.2712 20.2605 44.5176 20.2605C43.7369 20.2605 43.0758 20.7666 42.8422 21.4688L41.269 24.7174L37.6095 25.2006C37.6088 25.2027 37.6088 25.2055 37.6081 25.2075C36.7079 25.2903 36.0029 26.0459 36.0029 26.9664C36.0029 27.5476 36.2838 28.0606 36.7155 28.3839L39.2495 30.9353L38.6335 34.3182C38.6356 34.3195 38.637 34.3202 38.6391 34.3209C38.5709 34.5086 38.5327 34.7089 38.5327 34.9195C38.5327 35.8956 39.3238 36.6867 40.3006 36.6867C40.6308 36.6867 40.9395 36.5949 41.205 36.4357L44.5379 34.777L47.74 36.3808C48.0236 36.5741 48.3663 36.6867 48.7355 36.6867C49.7109 36.6867 50.502 35.8956 50.502 34.9195C50.502 34.8688 50.4985 34.8173 50.4937 34.7659C50.4971 34.7638 50.4985 34.7624 50.502 34.7596L49.8263 30.9354L52.4291 28.3132C52.4291 28.3111 52.4256 28.3062 52.4221 28.3013C52.7948 27.9767 53.0318 27.5005 53.0318 26.9672L53.0318 26.9671Z"
            fill="#FFBD00" />
    </g>
    <defs>
        <clipPath id="clip0_19_140">
            <rect width="17.7971" height="17.7971" fill="white"
                transform="translate(35.5908 19.6509)" />
        </clipPath>
    </defs>
</svg>